<svg width="22" height="23" viewBox="0 0 22 23" fill="none" xmlns="http://www.w3.org/2000/svg">
<path d="M12.9896 2.65771C11.8675 2.65771 10.7914 3.10438 9.998 3.89946C9.20457 4.69454 8.75883 5.77289 8.75883 6.8973V9.25772H6.4948C6.38113 9.25772 6.28898 9.35006 6.28898 9.46396V12.5806C6.28898 12.6945 6.38113 12.7869 6.4948 12.7869H8.75883V19.1806C8.75883 19.2945 8.85098 19.3869 8.96465 19.3869H12.0748C12.1885 19.3869 12.2807 19.2945 12.2807 19.1806V12.7869H14.5647C14.6592 12.7869 14.7415 12.7225 14.7644 12.6307L15.542 9.51399C15.5744 9.38381 15.4762 9.25772 15.3423 9.25772H12.2807V6.8973C12.2807 6.70888 12.3554 6.52819 12.4883 6.39496C12.6213 6.26173 12.8016 6.18688 12.9896 6.18688H15.368C15.4817 6.18688 15.5738 6.09454 15.5738 5.98063V2.86396C15.5738 2.75006 15.4817 2.65771 15.368 2.65771H12.9896Z" fill="#303635"/>
</svg>
