<svg width="1440" height="934" viewBox="0 0 1440 934" fill="none" xmlns="http://www.w3.org/2000/svg">
<g clip-path="url(#clip0_0_27)">
<rect width="1440" height="934" fill="#FAFAFA"/>
<path opacity="0.8" d="M-264.718 172.191L-266 239.704C-266 239.704 -76.8596 214.001 156.183 286.235C274.413 322.852 394.951 396.266 498.581 525.626C722.892 805.604 867.874 522.251 1067.97 393.989C1140.15 347.666 1220.56 321.283 1314.7 353.581C1545.58 432.827 1637.24 403.861 1675.9 374.91C1696 359.857 1701.77 344.805 1705.34 344.944L1706 309.758C1706 309.758 1680.89 450.587 1305.73 302.579C1142.48 238.204 1022.48 337.946 913.485 437.673C771.95 567.2 648.905 696.712 473.568 466.833C273.559 204.642 24.6904 158 -126.972 158C-210.631 158 -264.718 172.191 -264.718 172.191Z" fill="#EEF0EE"/>
</g>
<defs>
<clipPath id="clip0_0_27">
<rect width="1440" height="934" fill="white"/>
</clipPath>
</defs>
</svg>
