<svg width="23" height="23" viewBox="0 0 23 23" fill="none" xmlns="http://www.w3.org/2000/svg">
<path d="M11.8815 8.04313C10.2396 8.04313 8.90853 9.37695 8.90853 11.0223C8.90853 12.6676 10.2396 14.0015 11.8815 14.0015C13.5234 14.0015 14.8545 12.6676 14.8545 11.0223C14.8545 9.37695 13.5234 8.04313 11.8815 8.04313Z" fill="#303635"/>
<path fill-rule="evenodd" clip-rule="evenodd" d="M7.09688 2.84698C10.2511 2.49372 13.5119 2.49372 16.6662 2.84698C18.4027 3.04147 19.8034 4.4126 20.0072 6.1589C20.3844 9.39015 20.3844 12.6544 20.0072 15.8857C19.8034 17.632 18.4027 19.0031 16.6662 19.1976C13.5119 19.5509 10.2511 19.5509 7.09688 19.1976C5.3603 19.0031 3.95963 17.632 3.75581 15.8857C3.37867 12.6544 3.37867 9.39015 3.75581 6.1589C3.95963 4.4126 5.3603 3.04147 7.09688 2.84698ZM16.4553 5.5223C15.9501 5.5223 15.5406 5.9327 15.5406 6.43897C15.5406 6.94523 15.9501 7.35563 16.4553 7.35563C16.9605 7.35563 17.3701 6.94523 17.3701 6.43897C17.3701 5.9327 16.9605 5.5223 16.4553 5.5223ZM7.53639 11.0223C7.53639 8.61756 9.48177 6.66813 11.8815 6.66813C14.2812 6.66813 16.2266 8.61756 16.2266 11.0223C16.2266 13.427 14.2812 15.3765 11.8815 15.3765C9.48177 15.3765 7.53639 13.427 7.53639 11.0223Z" fill="#303635"/>
</svg>
