<svg width="68" height="23" viewBox="0 0 68 23" fill="none" xmlns="http://www.w3.org/2000/svg">
<path d="M8.85592 6.09277C10.5092 6.09277 11.8788 6.6479 12.9579 7.76508C14.037 8.88227 14.5766 10.4227 14.5766 12.3865V21.7195H10.6683V12.8722C10.6683 11.8591 10.3985 11.0819 9.85203 10.5476C9.30555 10.0133 8.57923 9.74271 7.67306 9.74271C6.66312 9.74271 5.85379 10.055 5.25198 10.6864C4.64326 11.3179 4.34581 12.2546 4.34581 13.5106V21.7195H0.4375V6.52299H4.33889V8.22306C5.28657 6.80056 6.79455 6.09277 8.85592 6.09277Z" fill="#004C4C"/>
<path d="M30.8181 19.8183C29.2617 21.3657 27.3663 22.1429 25.1251 22.1429C22.8839 22.1429 20.9885 21.3657 19.446 19.8183C17.9034 18.2709 17.1287 16.3696 17.1287 14.1214C17.1287 11.8731 17.9034 9.97184 19.446 8.42443C20.9885 6.87703 22.8839 6.09985 25.1251 6.09985C27.3663 6.09985 29.2686 6.87703 30.8181 8.42443C32.3745 9.97184 33.1493 11.8731 33.1493 14.1214C33.1493 16.3627 32.3745 18.264 30.8181 19.8183ZM22.1991 17.126C22.9738 17.917 23.9492 18.3126 25.1251 18.3126C26.2942 18.3126 27.2764 17.917 28.065 17.126C28.8536 16.3349 29.2479 15.3357 29.2479 14.1144C29.2479 12.9001 28.8536 11.894 28.065 11.1029C27.2764 10.3119 26.2942 9.91633 25.1251 9.91633C23.9561 9.91633 22.9807 10.3119 22.1991 11.1029C21.4243 11.894 21.03 12.8932 21.03 14.1144C21.03 15.3357 21.4174 16.3349 22.1991 17.126Z" fill="#004C4C"/>
<path d="M48.8176 19.8183C47.2612 21.3657 45.3659 22.1429 43.1246 22.1429C40.8834 22.1429 38.9881 21.3657 37.4455 19.8183C35.9029 18.2709 35.1282 16.3696 35.1282 14.1214C35.1282 11.8731 35.9029 9.97184 37.4455 8.42443C38.9881 6.87703 40.8834 6.09985 43.1246 6.09985C45.3659 6.09985 47.2681 6.87703 48.8176 8.42443C50.374 9.97184 51.1488 11.8731 51.1488 14.1214C51.1488 16.3627 50.3671 18.264 48.8176 19.8183ZM40.1986 17.126C40.9733 17.917 41.9487 18.3126 43.1246 18.3126C44.2937 18.3126 45.2759 17.917 46.0645 17.126C46.8531 16.3349 47.2474 15.3357 47.2474 14.1144C47.2474 12.9001 46.8531 11.894 46.0645 11.1029C45.2759 10.3119 44.2937 9.91633 43.1246 9.91633C41.9556 9.91633 40.9803 10.3119 40.1986 11.1029C39.4239 11.894 39.0296 12.8932 39.0296 14.1144C39.0296 15.3357 39.4169 16.3349 40.1986 17.126Z" fill="#004C4C"/>
<path d="M67.8748 21.7126H63.3301L57.817 14.8083V21.7126H53.9087V0.4375H57.817V13.2331L63.0258 6.52304H67.695L61.6077 14.0311L67.8748 21.7126Z" fill="#004C4C"/>
</svg>
