<svg width="23" height="23" viewBox="0 0 23 23" fill="none" xmlns="http://www.w3.org/2000/svg">
<path d="M20.7594 5.7306C20.8125 5.65656 20.7342 5.56096 20.6494 5.5939C20.0468 5.82795 19.417 5.98586 18.7746 6.06368C19.4899 5.63549 20.0419 4.98366 20.3479 4.21195C20.3791 4.13334 20.2934 4.06314 20.2195 4.10403C19.5548 4.47193 18.8378 4.73684 18.0931 4.88941C18.0619 4.89579 18.0297 4.88516 18.0079 4.86202C17.449 4.27106 16.7133 3.8776 15.9113 3.74163C15.0924 3.6028 14.2507 3.74026 13.5182 4.13244C12.7857 4.52462 12.2039 5.14934 11.8638 5.90862C11.5406 6.63054 11.4533 7.4353 11.6128 8.20816C11.6252 8.26813 11.5783 8.32475 11.5173 8.32095C10.0683 8.23076 8.65251 7.84454 7.3572 7.18555C6.06518 6.52824 4.92106 5.61381 3.99453 4.49865C3.95341 4.44916 3.87547 4.45557 3.84551 4.51254C3.5572 5.06077 3.40625 5.67181 3.40666 6.29285C3.40549 6.91103 3.55688 7.51991 3.84736 8.06528C4.13783 8.61065 4.55837 9.07558 5.07153 9.41868C4.52732 9.40384 3.99371 9.26902 3.50843 9.02458C3.44589 8.99308 3.37087 9.03793 3.37413 9.108C3.41197 9.92313 3.7106 10.7415 4.22749 11.3693C4.77756 12.0375 5.54104 12.4947 6.38879 12.6637C6.06245 12.7632 5.72364 12.8157 5.38255 12.8195C5.19691 12.8173 5.01163 12.8036 4.82778 12.7784C4.75961 12.7691 4.70395 12.834 4.72781 12.8986C4.98067 13.5838 5.42737 14.1817 6.01472 14.6182C6.64266 15.0848 7.40012 15.3436 8.18172 15.3587C6.8619 16.3993 5.23242 16.9673 3.55303 16.972C3.38046 16.9726 3.20798 16.967 3.0359 16.9552C2.93892 16.9486 2.89432 17.0781 2.97791 17.1278C4.61421 18.1008 6.48446 18.6152 8.39211 18.6128C9.80056 18.6275 11.1978 18.3608 12.5022 17.8283C13.8067 17.2957 14.9921 16.5081 15.9894 15.5113C16.9866 14.5145 17.7757 13.3286 18.3105 12.0228C18.8452 10.7171 19.115 9.3176 19.104 7.90618V7.46634C19.104 7.4374 19.1176 7.41018 19.1407 7.39274C19.7611 6.92328 20.3068 6.3628 20.7594 5.7306Z" fill="#303635"/>
</svg>
